<?xml version="1.0" encoding="UTF-8" standalone="no"?>
<svg
   xmlns:dc="http://purl.org/dc/elements/1.1/"
   xmlns:cc="http://creativecommons.org/ns#"
   xmlns:rdf="http://www.w3.org/1999/02/22-rdf-syntax-ns#"
   xmlns:svg="http://www.w3.org/2000/svg"
   xmlns="http://www.w3.org/2000/svg"
   xmlns:sodipodi="http://sodipodi.sourceforge.net/DTD/sodipodi-0.dtd"
   xmlns:inkscape="http://www.inkscape.org/namespaces/inkscape"
   version="1.0"
   width="500pt"
   height="200pt"
   viewBox="0 0 500 200"
   preserveAspectRatio="xMidYMid meet"
   id="svg3955"
   sodipodi:docname="logo.svg"
   inkscape:export-filename="/home/wellingtonjunior/Projetos/pessoal/template-site-maya/img/logo.png"
   inkscape:export-xdpi="96"
   inkscape:export-ydpi="96"
   inkscape:version="0.92.5 (2060ec1f9f, 2020-04-08)">
  <metadata
     id="metadata3961">
    <rdf:RDF>
      <cc:Work
         rdf:about="">
        <dc:format>image/svg+xml</dc:format>
        <dc:type
           rdf:resource="http://purl.org/dc/dcmitype/StillImage" />
        <dc:title></dc:title>
        <dc:title></dc:title>
      </cc:Work>
    </rdf:RDF>
  </metadata>
  <defs
     id="defs3959" />
  <sodipodi:namedview
     pagecolor="#ffffff"
     bordercolor="#666666"
     borderopacity="1"
     objecttolerance="10"
     gridtolerance="10"
     guidetolerance="10"
     inkscape:pageopacity="0"
     inkscape:pageshadow="2"
     inkscape:window-width="1856"
     inkscape:window-height="1016"
     id="namedview3957"
     showgrid="false"
     inkscape:zoom="1.4164673"
     inkscape:cx="365.62545"
     inkscape:cy="151.37486"
     inkscape:window-x="64"
     inkscape:window-y="27"
     inkscape:window-maximized="1"
     inkscape:current-layer="g3953" />
  <g
     transform="matrix(0.01555326,0,0,-0.01555326,-70.091796,298.86224)"
     id="g3953"
     style="fill:#4f4f51;fill-opacity:1;stroke:none"
     inkscape:export-xdpi="96"
     inkscape:export-ydpi="96">
    <path
       inkscape:connector-curvature="0"
       d="m 20468.572,18518.852 c -13.625,-7.664 -15.329,-23.844 -15.329,-110.703 0,-140.508 -5.109,-136.25 164.352,-137.102 1201.554,-5.109 3593.593,-34.062 3603.812,-43.43 10.218,-9.367 11.07,-426.632 0.851,-1898.132 -5.961,-1010.804 -5.961,-1112.992 6.813,-1124.914 28.101,-28.953 245.25,-30.656 265.687,-2.555 5.961,8.516 11.07,210.336 14.477,639.524 7.664,787.695 7.664,2606.632 0.851,2641.546 -2.555,14.477 -10.219,28.102 -17.031,30.656 -5.961,2.555 -911.172,6.813 -2010.539,9.367 -1458.726,4.258 -2003.726,2.555 -2013.944,-4.257 z"
       id="path3893"
       style="fill:#4f4f51;fill-opacity:1;stroke-width:0.85156232" />
    <path
       inkscape:connector-curvature="0"
       d="m 18888.072,17350.508 c -7.664,-7.664 -10.219,-484.539 -10.219,-1890.468 0,-1849.593 0,-1879.398 16.18,-1888.765 21.289,-11.071 230.773,-11.071 247.804,0 11.071,6.812 12.774,203.523 12.774,1683.538 0,1482.57 1.703,1675.875 12.773,1677.578 6.813,1.703 68.125,-22.992 136.25,-53.648 205.227,-93.672 349.141,-156.688 430.039,-187.344 41.727,-16.18 80.047,-33.211 85.156,-37.469 12.774,-11.07 263.133,-122.625 355.954,-159.242 43.429,-16.18 130.289,-55.352 193.304,-85.156 63.016,-29.805 189.899,-86.008 281.016,-123.477 91.117,-37.468 195.859,-83.453 231.625,-101.336 87.711,-44.281 107.297,-42.578 205.226,9.368 43.43,22.992 100.485,49.39 126.031,58.757 52.797,18.735 246.953,104.743 394.274,175.422 56.203,26.399 140.508,63.867 187.343,82.602 47.688,18.734 137.954,58.758 200.969,89.414 63.016,29.804 189.899,86.859 281.016,126.031 91.117,39.172 226.515,100.484 299.75,135.398 74.086,35.766 137.953,64.719 143.062,64.719 5.109,0 8.516,-55.351 8.516,-160.945 0,-135.399 2.554,-163.5 13.625,-174.57 10.218,-11.071 34.914,-13.625 125.179,-13.625 62.164,0 118.368,4.257 125.18,8.515 11.07,6.813 12.773,54.5 15.328,325.297 0.852,174.57 -0.851,340.625 -4.258,368.726 l -6.812,51.094 -28.953,-2.554 c -15.328,-1.704 -59.61,-16.18 -97.93,-33.211 -37.469,-16.18 -107.297,-45.985 -154.133,-66.422 -46.836,-19.586 -138.804,-62.164 -203.523,-92.821 -65.57,-31.507 -172.867,-79.195 -238.438,-106.445 -66.421,-28.101 -156.687,-68.125 -200.968,-90.265 -44.281,-21.289 -143.914,-66.422 -221.406,-99.633 -77.493,-32.36 -205.227,-90.266 -285.274,-127.735 -79.195,-37.468 -184.789,-84.304 -234.179,-104.742 -49.391,-19.586 -149.875,-63.867 -224.813,-97.929 l -134.547,-61.313 -82.601,38.32 c -95.375,45.133 -206.078,92.821 -277.61,120.922 -28.101,10.219 -110.703,46.836 -183.085,80.899 -137.954,64.718 -267.391,120.922 -372.985,162.648 -34.062,13.625 -86.008,36.617 -114.961,51.945 -76.64,38.321 -207.781,96.227 -325.296,143.063 -56.204,22.14 -154.133,65.57 -217.149,96.226 -63.015,30.657 -189.898,86.86 -281.015,125.18 -91.118,38.32 -177.977,74.938 -192.453,80.898 -19.586,9.368 -28.954,9.368 -35.766,2.555 z"
       id="path3895"
       style="fill:#4f4f51;fill-opacity:1;stroke-width:0.85156232" />
    <path
       inkscape:connector-curvature="0"
       d="m 21218.798,15820.251 -20.438,-16.18 1.704,-1411.89 c 2.554,-1261.164 3.406,-1413.594 15.328,-1425.516 17.882,-17.882 232.476,-18.734 253.765,-0.851 13.625,10.219 14.477,61.312 14.477,593.539 0,360.211 3.406,583.32 8.515,586.726 4.258,2.555 344.032,5.11 755.336,4.258 590.984,0 751.93,2.555 768.961,11.07 21.289,11.071 21.289,11.071 21.289,131.993 0,98.781 -2.555,123.476 -12.773,129.437 -7.665,5.109 -305.711,8.516 -763.852,8.516 -413.008,0 -756.187,2.554 -763.851,5.109 -11.922,5.109 -13.625,61.312 -13.625,552.664 0,366.172 2.554,550.109 8.515,553.515 5.11,3.407 385.758,5.11 845.602,4.258 683.804,-0.851 839.64,1.703 851.562,11.071 14.477,10.218 15.328,22.992 12.773,132.843 -2.554,108.149 -4.257,122.625 -18.734,133.696 -14.476,10.218 -162.648,11.921 -981,11.921 -935.867,0 -963.968,-0.851 -983.554,-16.179 z"
       id="path3897"
       style="fill:#4f4f51;fill-opacity:1;stroke-width:0.85156232" />
    <path
       inkscape:connector-curvature="0"
       d="m 17418.275,15008.712 c -9.367,-35.766 -5.961,-3089.468 3.407,-3107.351 9.367,-16.18 38.32,-16.18 1783.171,-16.18 1409.336,0 1775.507,2.555 1782.32,11.071 4.258,5.961 5.961,57.054 3.406,119.218 -4.258,83.453 -7.664,110.703 -17.883,116.664 -7.664,5.11 -636.968,8.516 -1652.882,8.516 -1488.531,0 -1640.961,0.852 -1646.07,13.625 -2.555,7.664 -5.109,653.148 -5.109,1434.031 0,1396.562 0,1421.257 -16.18,1430.625 -9.367,4.257 -64.719,8.515 -122.625,8.515 -103.039,0 -106.445,-0.851 -111.555,-18.734 z"
       id="path3899"
       style="fill:#4f4f51;fill-opacity:1;stroke-width:0.85156232" />
    <path
       inkscape:connector-curvature="0"
       d="m 25891.945,13649.225 c -515.265,-51.851 -1521.491,-234.948 -2044.857,-371.056 -207.403,-53.471 -278.697,-64.814 -375.918,-63.192 -115.042,4.86 -126.385,1.62 -194.439,-48.611 -76.156,-53.471 -184.718,-97.22 -358.093,-140.969 -239.809,-63.192 -941.412,-335.408 -1207.146,-468.275 -145.83,-72.915 -335.409,-191.199 -419.666,-262.494 -163.653,-136.108 -149.071,-309.483 34.027,-387.258 129.626,-53.472 909.006,-30.787 980.3,29.165 29.166,24.305 25.925,72.915 -4.861,84.257 -14.583,4.862 -179.857,9.722 -367.815,9.722 -328.927,0 -520.126,16.204 -549.292,45.37 -25.925,25.925 6.481,64.813 131.247,153.931 251.151,181.477 618.966,345.131 1263.857,562.254 374.297,124.766 416.426,132.868 400.223,77.777 -61.573,-213.884 -189.58,-1071.039 -275.457,-1824.494 -21.064,-189.578 -46.989,-354.853 -56.712,-366.195 -11.342,-12.963 -132.866,-77.776 -270.595,-145.83 -395.36,-192.82 -557.394,-337.03 -529.847,-465.036 8.101,-32.407 72.914,-63.193 134.487,-63.193 42.129,0 50.229,8.102 64.813,66.434 9.721,37.267 35.647,82.637 55.091,102.081 45.369,40.508 272.216,163.653 398.601,217.125 111.803,46.989 139.349,42.128 134.488,-21.065 -3.24,-27.546 -25.925,-270.596 -53.471,-542.8115 -25.925,-272.2154 -55.091,-607.624 -64.813,-745.352 -9.722,-137.7281 -24.305,-341.8898 -32.407,-453.6927 -22.685,-303.0018 -17.823,-1015.9473 6.482,-1085.6215 25.925,-69.6743 93.979,-113.4232 134.487,-87.4979 25.925,16.2033 30.786,61.5726 38.887,445.591 4.862,234.9479 17.824,547.6717 29.167,695.1219 11.342,147.4501 25.925,354.8523 34.027,461.7942 12.962,181.477 40.508,476.3772 81.016,883.0807 9.723,93.9788 24.305,260.8728 30.786,371.0558 12.964,179.857 17.824,204.162 53.471,239.809 25.926,24.305 150.691,79.397 354.853,152.312 531.469,191.199 751.834,257.633 920.348,275.457 324.066,35.647 293.279,27.545 293.279,79.396 0,63.193 -38.887,72.915 -251.15,71.295 -264.115,-4.861 -571.977,-77.777 -947.894,-230.088 -123.145,-48.61 -330.548,-116.664 -359.713,-116.664 -21.065,0 -6.482,131.248 69.674,648.134 35.647,236.568 71.294,486.1 81.016,557.394 8.101,69.674 34.028,212.263 56.712,315.965 21.064,103.701 53.471,275.455 71.295,382.397 46.989,280.317 48.609,281.937 85.877,307.863 71.294,46.99 1476.121,346.75 1955.74,419.666 523.366,77.775 669.196,92.359 897.662,95.599 239.809,1.621 345.131,-21.064 434.248,-97.219 84.258,-69.674 132.868,-68.054 139.349,8.101 11.342,108.563 -81.017,173.375 -309.483,220.365 -134.488,27.545 -453.692,32.407 -691.881,8.102 z"
       id="path3901"
       style="fill:#4f4f51;fill-opacity:1;stroke-width:1.62033069" />
    <path
       inkscape:connector-curvature="0"
       d="m 12418.895,12860.123 c -82.636,-38.887 -187.959,-152.311 -309.483,-335.407 -283.558,-424.528 -537.95,-968.958 -819.887,-1749.959 -207.403,-576.839 -280.318,-781.0018 -367.816,-1030.5322 -174.996,-497.4416 -256.011,-643.2714 -288.418,-521.7466 -19.444,71.2946 -11.343,618.9664 11.342,912.2468 27.545,328.927 27.545,761.557 3.241,852.296 -40.508,139.348 -119.905,184.718 -226.846,129.626 -102.081,-53.471 -218.745,-231.708 -362.954,-562.256 -181.4776,-408.324 -304.6224,-803.685 -620.5868,-1991.3874 -153.9312,-584.9394 -262.4935,-915.4869 -299.7606,-915.4869 -32.4068,0 -71.2952,140.9689 -105.3221,380.7778 -37.2672,256.0122 -51.8504,1071.0386 -25.9252,1427.5114 9.7218,137.7281 25.9252,354.8524 34.0269,484.4793 56.7119,781.0008 191.1994,1615.4728 379.1574,2354.3428 98.8404,387.259 108.5624,456.934 59.9526,473.137 -108.5627,34.027 -174.9964,-87.498 -291.6593,-534.709 -150.6909,-571.977 -298.1416,-1440.476 -356.4736,-2091.85 -61.5723,-682.1594 -63.1924,-1625.1919 -3.2403,-2043.2373 74.5354,-513.6448 144.2094,-669.1966 303.002,-669.1966 84.2572,0 110.1824,30.7863 202.5413,243.0496 81.0159,187.9584 176.6159,516.8855 348.3705,1203.9057 226.8464,900.904 359.7132,1310.8476 554.1532,1707.8296 87.497,179.858 212.263,377.538 238.188,377.538 43.749,0 42.129,-58.332 -24.305,-998.1258 -42.129,-599.5222 4.861,-933.3103 142.589,-990.0219 81.017,-34.0269 136.108,-4.8609 212.263,106.9418 134.488,197.6803 231.708,431.008 400.223,949.5139 157.171,484.48 406.703,1148.817 562.254,1490.708 249.531,550.912 524.987,1019.187 664.336,1130.99 92.359,76.156 100.46,56.711 98.84,-252.771 0,-285.179 -35.648,-576.839 -153.932,-1267.1 -89.118,-528.229 -152.311,-967.339 -217.124,-1490.7064 -81.017,-670.8169 -81.017,-677.2983 -186.338,-2258.7411 -53.471,-810.1654 -43.749,-957.6155 63.193,-957.6155 61.572,0 61.572,1.6203 74.535,429.3877 9.722,332.1678 76.156,1119.6485 145.83,1709.4489 21.065,183.0975 42.128,379.1574 48.61,437.4893 17.823,171.7551 71.294,576.8378 105.321,785.8604 17.824,106.9418 46.99,304.6227 64.813,437.4897 19.444,134.488 51.851,353.233 72.916,486.1 35.647,221.986 90.738,604.385 165.273,1126.132 40.508,288.418 40.508,735.629 -1.62,862.015 -53.471,163.654 -162.033,223.607 -293.28,162.033 z"
       id="path3903"
       style="fill:#4f4f51;fill-opacity:1;stroke-width:1.62033069" />
    <path
       inkscape:connector-curvature="0"
       d="m 30430.491,11729.132 c -38.887,-48.609 -43.749,-64.812 -123.144,-409.944 -77.777,-337.029 -100.461,-494.201 -121.526,-819.888 -27.545,-447.212 -29.165,-474.758 -55.09,-524.9878 -38.889,-74.5357 -346.751,-341.8903 -445.592,-387.2596 -116.664,-53.4709 -306.242,-68.0538 -366.195,-29.1659 -155.551,102.0809 -192.818,393.7405 -81.016,657.8543 61.572,145.83 152.311,291.661 181.477,291.661 14.583,0 46.99,-24.305 71.295,-51.851 61.572,-72.915 102.08,-50.23 108.562,59.952 17.824,264.115 -221.986,298.142 -432.629,63.193 -97.219,-108.562 -123.145,-153.932 -196.06,-345.131 -46.989,-123.145 -68.054,-152.311 -184.718,-268.9748 -152.311,-152.3116 -225.225,-194.4402 -346.75,-194.4402 -79.396,0 -90.739,4.861 -140.968,59.9522 -68.055,72.915 -98.841,176.6158 -121.526,398.6018 -16.203,170.135 -27.545,209.023 -71.294,244.67 -55.092,45.37 -102.081,-16.203 -324.067,-416.425 -72.914,-129.6268 -140.968,-238.189 -152.311,-243.0501 -48.61,-16.2032 3.242,207.4021 89.119,377.5371 108.562,212.264 273.835,396.982 358.093,396.982 24.305,0 74.535,-21.064 111.802,-48.61 35.648,-27.545 89.119,-53.471 116.664,-58.332 46.99,-9.722 50.23,-6.481 50.23,34.027 0,77.776 -71.294,178.237 -149.069,210.644 -158.793,66.433 -306.244,21.064 -468.276,-142.59 -79.396,-81.016 -118.284,-142.589 -200.922,-311.104 -111.802,-228.467 -137.727,-322.4458 -137.727,-494.2013 0,-131.2468 21.063,-187.9584 82.637,-220.365 79.396,-40.5082 155.551,-29.166 210.643,30.7863 53.47,56.7115 139.348,189.5787 225.225,349.9912 30.787,58.332 64.814,106.9418 74.535,110.1828 11.343,3.241 34.027,-42.129 53.472,-105.3218 24.304,-82.6366 53.471,-134.4873 106.941,-194.4395 179.858,-200.921 387.259,-197.6803 651.373,6.4813 50.23,38.888 100.46,71.2945 110.182,71.2945 11.343,0 35.648,-48.6098 55.092,-108.562 45.369,-139.3485 82.637,-194.4398 181.478,-267.3546 228.466,-168.5144 537.949,-98.8402 866.876,194.4396 55.092,48.61 105.322,85.8776 111.803,82.6369 6.481,-3.2407 14.583,-100.4605 17.824,-217.1243 11.342,-424.5266 55.091,-740.4912 119.904,-845.8127 64.814,-106.9417 196.06,-77.7758 236.568,53.471 11.342,34.0269 58.332,187.9584 103.701,338.6491 116.664,380.7778 374.297,975.4395 434.249,993.2625 14.583,4.861 19.444,-32.406 19.444,-150.6905 0,-283.5579 51.851,-484.4789 149.071,-575.2174 42.129,-38.888 134.487,-43.749 212.263,-9.722 74.535,32.4066 239.809,209.0226 322.446,345.1305 l 71.294,115.0434 v -171.7551 c -1.62,-204.1617 27.546,-299.7611 113.423,-375.9167 43.749,-37.2675 71.294,-48.6099 124.766,-48.6099 236.568,0 448.832,366.1947 448.832,772.8979 0,184.7178 -6.482,210.6428 -100.461,366.1948 -66.434,110.183 -66.434,111.803 -40.509,162.034 69.674,136.108 17.824,226.847 -95.599,168.515 -76.155,-40.509 -145.829,-124.766 -215.504,-267.356 -37.267,-72.915 -89.118,-152.311 -118.284,-178.236 -89.118,-77.776 -110.183,-105.322 -179.857,-230.0878 -149.07,-270.595 -314.344,-484.4787 -392.12,-508.7837 -82.636,-24.305 -105.321,48.6099 -121.525,387.259 -17.823,320.8255 -38.888,432.6285 -89.117,452.0725 -46.99,17.824 -137.729,-25.925 -197.681,-93.979 -129.626,-149.071 -349.991,-617.3464 -465.035,-985.1614 -102.081,-328.9272 -113.423,-288.4189 -100.461,362.954 14.584,675.6784 21.065,823.1294 42.129,1009.4674 24.305,225.227 77.776,583.32 115.044,787.482 17.823,95.6 30.785,218.745 27.545,275.456 -4.861,103.701 -4.861,103.701 -55.092,108.563 -40.507,3.24 -59.952,-4.862 -85.877,-38.889 z m 1848.797,-1549.038 c 12.964,-24.305 19.445,-92.359 17.824,-194.4398 -4.86,-262.4937 -98.84,-534.7093 -192.819,-557.394 -46.99,-12.9626 -71.295,11.3423 -71.295,71.2946 0,100.4605 40.509,291.6595 106.942,494.2004 76.156,226.8468 98.841,257.6338 139.348,186.3388 z"
       id="path3905"
       style="fill:#4f4f51;fill-opacity:1;stroke-width:1.62033069" />
    <path
       inkscape:connector-curvature="0"
       d="m 15573.679,11275.44 c -42.129,-29.166 -82.636,-90.739 -218.745,-330.549 -108.561,-191.199 -346.751,-576.838 -469.895,-761.556 -139.349,-207.4028 -322.446,-421.2866 -362.954,-421.2866 -48.611,0 6.48,379.1576 77.775,546.0516 43.749,102.082 59.952,246.291 29.166,265.735 -12.962,8.102 -37.267,9.722 -55.091,4.861 -84.257,-22.684 -110.182,-50.23 -173.376,-184.718 -35.647,-76.156 -71.294,-152.311 -81.016,-171.755 -8.101,-19.444 -90.739,-111.803 -179.857,-205.783 -128.006,-132.8668 -186.338,-181.4768 -259.252,-215.5037 -233.328,-105.3215 -366.196,27.5456 -392.121,395.3607 -12.962,170.135 -32.407,238.19 -76.155,268.976 -66.434,46.99 -97.22,8.101 -338.649,-414.806 -140.97,-251.151 -183.098,-294.9 -158.793,-168.5141 45.37,246.2901 202.541,531.4691 364.574,659.4751 76.156,59.953 129.627,59.953 212.264,-1.62 35.647,-27.545 89.118,-53.471 116.663,-58.332 46.99,-9.722 50.231,-6.481 50.231,32.407 0,95.6 -87.498,194.44 -199.3,228.467 -173.376,51.85 -348.372,-38.888 -507.164,-260.874 -98.84,-140.969 -231.708,-447.212 -252.771,-586.5605 -35.649,-221.9853 16.203,-340.2694 153.931,-354.8524 69.674,-8.1017 82.637,-4.861 126.386,37.2676 63.192,59.9522 171.754,226.8463 241.429,367.8155 56.711,115.0428 90.738,136.1078 106.941,64.8128 35.647,-166.8941 116.664,-290.0392 233.328,-358.0931 59.952,-35.6473 92.359,-43.749 186.338,-43.749 97.22,0 128.006,8.1017 212.263,53.471 55.092,30.7862 140.97,90.7385 191.2,134.4874 50.23,45.3693 97.219,77.7759 106.941,71.2945 8.102,-4.8609 16.203,-34.0269 16.203,-61.5726 0,-29.1658 17.824,-89.1181 38.889,-134.4874 59.952,-131.2467 174.996,-155.5517 294.9,-63.1929 137.728,105.3215 401.842,486.0991 821.507,1187.7031 93.979,157.173 132.868,210.644 144.21,194.441 25.925,-37.268 -19.444,-795.584 -77.776,-1276.8226 -25.925,-223.6056 -38.887,-251.1513 -153.931,-337.0287 -560.635,-416.425 -1124.509,-1037.0118 -1297.885,-1427.5114 -72.916,-163.6534 -84.258,-184.7177 -102.081,-179.8568 -8.102,3.2407 -38.888,68.0539 -66.434,144.2095 -71.294,197.6804 -202.541,507.1635 -228.466,536.3295 -12.963,14.5829 -25.926,17.8236 -35.647,8.1017 -17.824,-17.8237 -179.858,-395.3608 -270.596,-631.929 -32.406,-79.3962 -81.016,-207.4024 -111.803,-283.5579 -106.941,-272.2156 -142.588,-372.6761 -132.866,-382.3981 4.86,-4.8609 24.305,-4.8609 43.748,1.6203 37.267,11.3424 113.423,160.4127 168.515,327.3068 14.583,45.3693 37.267,92.3589 50.23,102.0809 34.027,27.5456 505.543,32.4066 528.227,6.4813 8.102,-11.3424 34.027,-85.8775 55.092,-166.8941 46.99,-171.755 92.359,-252.7716 181.476,-314.3441 81.017,-56.7116 150.691,-76.1556 267.355,-76.1556 163.654,0 338.649,82.6369 502.303,236.5684 50.231,48.6098 100.461,87.4977 113.423,87.4977 11.342,-1.6203 40.508,-30.7862 66.434,-66.4334 116.664,-168.5145 356.472,-204.1617 536.33,-81.0166 40.507,27.5456 79.395,50.2302 89.117,50.2302 11.342,0 17.824,-87.4979 17.824,-265.7342 0,-268.9749 8.101,-309.4832 56.712,-268.9749 21.063,17.8236 24.305,124.7654 24.305,698.3625 0,751.8335 -1.62,766.4164 -90.739,618.9664 -16.203,-27.5456 -21.064,-25.9253 -81.016,14.583 -34.028,22.6846 -93.98,51.8505 -132.867,61.5725 -38.889,9.722 -74.536,29.166 -79.397,42.1286 -4.861,12.9626 6.481,64.8133 25.925,116.6638 55.092,149.0705 142.589,523.3668 196.061,837.711 27.545,160.4128 61.572,309.4832 76.155,330.5475 40.508,63.1929 834.471,562.2548 865.256,544.431 6.482,-4.861 3.242,-38.888 -4.86,-76.155 -22.685,-100.4609 -6.482,-267.355 30.786,-319.2055 35.648,-46.9896 124.765,-76.1556 189.579,-59.9524 53.47,12.9628 157.171,150.6908 252.772,335.4085 69.673,137.7282 108.562,192.8192 131.246,192.8192 6.481,0 21.065,-42.128 30.786,-92.3588 34.027,-165.2736 116.664,-277.0764 251.152,-338.6489 152.311,-71.2946 315.964,-35.6474 495.82,106.9417 115.044,92.3589 144.211,100.4606 144.211,37.2677 0,-72.9149 30.785,-160.4128 64.812,-191.1991 46.99,-42.1286 124.766,-34.0269 179.858,17.8237 45.368,43.7489 273.835,392.1197 273.835,418.0457 0,22.684 131.247,231.707 162.033,260.873 16.203,14.583 37.268,22.685 45.37,17.824 8.101,-4.861 19.443,-102.081 24.304,-215.504 9.723,-238.1891 45.37,-377.5376 129.627,-500.6827 90.739,-134.4874 181.476,-173.3753 319.205,-136.1077 58.332,16.2032 98.84,45.3692 204.162,155.5517 71.294,74.5351 136.107,136.1077 140.969,136.1077 4.86,0 17.823,-29.1659 27.545,-63.1928 25.925,-100.4606 63.193,-134.4875 155.551,-142.5891 64.814,-6.4814 85.878,-1.6203 115.044,25.9252 55.091,51.8507 157.173,209.0227 233.328,356.4729 79.396,157.1718 105.321,163.6538 139.348,34.027 42.129,-168.5146 186.338,-324.0663 324.067,-349.9916 134.486,-25.9252 294.899,35.6473 476.377,179.8567 170.134,134.4879 291.66,337.0287 236.568,393.7407 -35.647,34.027 -111.803,-6.481 -187.958,-102.081 -106.942,-132.8668 -218.745,-231.7074 -314.345,-275.4563 -97.219,-46.9897 -155.551,-50.2303 -221.985,-16.2034 -105.321,55.0913 -150.691,166.8939 -176.616,443.9707 -16.204,173.376 -45.369,246.291 -103.701,257.634 -35.647,6.481 -128.006,-124.766 -267.355,-377.538 -63.192,-115.0438 -126.386,-230.0875 -139.348,-254.3925 -56.712,-103.7011 -77.775,-17.8236 -32.407,134.4877 79.396,264.1138 324.066,597.9028 439.11,597.9028 25.925,0 79.396,-24.305 124.766,-56.711 98.839,-69.675 155.551,-74.536 155.551,-16.204 0,103.702 -100.461,205.783 -225.226,233.328 -200.92,42.129 -427.767,-124.765 -570.356,-421.287 -27.545,-56.711 -76.156,-139.348 -108.562,-183.097 -32.407,-43.749 -85.878,-121.525 -116.664,-170.1348 -110.183,-170.1352 -254.392,-335.4089 -314.344,-364.5749 -166.895,-79.3962 -252.772,85.8775 -285.179,552.5327 -21.063,285.179 -37.267,358.094 -85.877,375.918 -92.359,34.027 -202.541,-66.434 -377.537,-345.131 -268.975,-424.5273 -290.039,-409.9443 -132.868,95.599 50.231,160.413 82.637,293.281 82.637,348.372 3.242,85.878 1.62,89.119 -40.508,93.98 -24.304,3.24 -58.331,-1.621 -74.534,-11.343 -45.37,-24.305 -137.729,-212.263 -197.681,-401.843 -46.989,-150.691 -61.573,-176.616 -163.653,-293.28 -204.162,-234.948 -377.538,-312.7239 -513.645,-230.087 -81.017,50.2303 -126.386,165.2742 -153.932,398.602 -22.685,192.82 -58.332,298.141 -97.22,298.141 -51.85,0 -165.273,-171.755 -343.51,-516.8858 -68.054,-129.6269 -110.183,-179.8572 -134.488,-155.5522 -4.86,4.861 0,53.4708 9.723,106.9422 34.027,186.3378 225.225,515.2658 356.473,618.9668 76.155,58.332 132.867,55.092 233.328,-12.962 45.368,-32.407 98.839,-56.712 116.662,-53.472 79.397,11.343 -6.48,196.061 -115.042,247.912 -85.878,40.508 -209.023,35.646 -306.244,-12.963 -110.182,-55.091 -246.29,-207.403 -324.065,-358.094 -61.573,-121.525 -66.434,-128.006 -225.227,-226.847 -230.086,-144.2088 -695.121,-413.1842 -751.833,-435.8689 -27.545,-9.7219 -51.85,-14.5829 -55.091,-11.3422 -3.241,4.8609 0,63.1929 8.102,129.6264 37.267,301.3817 38.887,1236.3147 3.24,1398.3477 -19.443,87.498 -81.017,115.044 -149.07,66.434 z m -149.07,-2061.0634 c 0,-34.027 -66.434,-362.9541 -111.804,-554.1531 -85.877,-358.0932 -142.588,-533.0888 -207.402,-635.1697 -61.572,-93.9791 -84.257,-150.6908 -132.867,-332.1678 -37.267,-136.1077 -322.445,-450.452 -445.591,-490.9602 -110.182,-35.6473 -110.182,-37.2676 -103.701,319.2052 6.482,369.4354 17.824,409.9437 140.969,490.9602 59.952,40.5083 87.498,48.6099 174.995,48.6099 72.915,0 102.082,6.4813 102.082,21.0643 0,90.7386 -218.745,76.1555 -341.89,-22.6847 l -58.332,-45.3692 -51.851,63.1929 c -35.647,45.3693 -48.61,76.1556 -42.128,97.2199 11.342,34.0269 183.097,251.1512 340.269,427.7673 53.471,59.9522 205.782,205.7819 340.27,322.4458 392.119,346.7508 396.981,349.9915 396.981,290.0392 z M 13716.78,8083.3857 c 35.648,-105.3215 81.017,-225.226 100.46,-264.1139 58.332,-118.2841 63.194,-115.0434 -191.198,-115.0434 -124.766,0 -226.847,6.4812 -226.847,14.5829 0,6.4814 24.306,66.4336 55.091,132.8671 29.167,66.4336 77.776,191.1991 106.942,278.697 30.786,95.5994 59.952,155.5517 69.674,152.311 11.342,-3.2407 48.61,-92.3588 85.878,-199.3007 z m 607.624,-17.8236 c 0,-16.2033 1.62,-213.8837 1.62,-439.1097 3.241,-434.2485 1.621,-447.2113 -71.294,-427.7673 -17.824,4.861 -56.712,32.4067 -85.878,61.5726 -66.433,64.8132 -97.22,183.0973 -84.257,314.3442 17.824,158.7924 165.273,518.5059 213.883,518.5059 12.964,0 24.305,-12.9628 25.926,-27.5457 z m 1169.879,-14.5829 c 90.739,-30.7864 183.097,-128.0062 197.68,-207.4024 6.481,-32.4067 8.101,-142.5891 4.861,-247.9106 -4.861,-149.0705 -11.342,-200.921 -34.027,-233.3277 -82.637,-123.1451 -267.355,-174.9957 -401.842,-116.6638 -53.471,24.305 -87.498,55.0912 -126.386,115.0436 -59.952,93.9791 -58.332,113.4231 16.203,231.7072 25.926,40.5083 90.739,165.2738 144.21,278.6969 53.471,113.4232 103.702,205.782 110.182,205.782 8.102,0 46.99,-11.3423 89.119,-25.9252 z"
       id="path3907"
       style="fill:#4f4f51;fill-opacity:1;stroke-width:1.62033069" />
    <path
       inkscape:connector-curvature="0"
       d="m 25413.948,10755.313 c -218.745,-46.99 -384.019,-221.986 -528.228,-565.497 -90.739,-215.5038 -119.905,-362.9545 -95.6,-494.2012 9.722,-45.3693 16.204,-85.8775 16.204,-90.7386 0,-3.2405 24.305,-19.4439 53.47,-37.2675 61.573,-38.888 136.108,-42.1286 186.338,-8.1016 50.231,35.6472 165.274,204.1616 246.29,361.3341 71.296,137.7278 106.943,163.6528 123.146,89.1178 35.647,-174.9958 129.626,-307.8628 260.873,-371.0557 72.914,-37.2676 102.081,-42.1286 179.857,-34.0271 108.562,9.7221 241.429,69.6743 332.167,150.6908 93.98,85.8776 102.082,77.7759 115.044,-110.1825 21.065,-303.0018 90.739,-442.3502 230.087,-461.7942 89.118,-11.3423 142.589,19.444 264.114,152.3111 189.578,205.7819 568.736,965.7176 568.736,1139.0936 0,42.129 -4.86,48.61 -45.369,48.61 -68.054,0 -103.702,-48.61 -197.681,-267.355 -116.664,-268.9758 -197.68,-426.1478 -311.104,-610.8655 -85.877,-140.9688 -186.338,-256.0122 -221.985,-256.0122 -82.637,0 -81.017,312.7239 3.241,795.5827 84.257,476.378 74.535,570.358 -51.851,516.887 -68.054,-27.546 -100.46,-93.98 -162.033,-337.03 -27.545,-110.183 -59.952,-217.125 -71.294,-238.189 -9.721,-21.064 -72.915,-93.979 -137.728,-162.0328 -205.782,-215.5045 -372.676,-259.2535 -495.821,-126.3863 -56.712,61.5726 -87.498,168.5141 -106.942,384.0191 -16.203,176.616 -42.129,247.911 -93.979,265.735 -37.268,11.342 -124.766,-106.943 -275.457,-375.918 -84.257,-147.4498 -162.033,-275.4564 -174.996,-286.7987 -37.267,-30.7863 -29.165,63.1928 19.445,207.4027 89.118,272.216 307.862,555.774 426.146,555.774 22.685,0 77.776,-25.925 121.526,-56.711 98.839,-69.675 155.551,-74.536 155.551,-14.583 0,50.23 -24.305,98.84 -77.775,155.551 -51.851,56.712 -179.858,98.841 -254.392,82.638 z"
       id="path3909"
       style="fill:#4f4f51;fill-opacity:1;stroke-width:1.62033069" />
    <path
       inkscape:connector-curvature="0"
       d="m 23380.433,8446.3398 c -81.017,-42.1286 -139.349,-118.2841 -155.553,-202.5413 -14.583,-72.9149 24.305,-170.1347 108.563,-272.2155 l 66.433,-81.0166 -53.47,-40.5083 c -128.007,-95.5995 -221.986,-202.5414 -241.43,-273.8359 -69.674,-260.8732 163.653,-471.5162 474.757,-431.008 106.942,14.583 192.819,51.8507 291.66,126.3858 42.128,34.027 82.637,59.9523 89.117,59.9523 8.102,0 46.99,-35.6473 87.499,-79.3962 66.434,-74.5353 145.829,-116.6638 170.134,-92.3589 6.482,6.4813 -38.888,61.5725 -100.46,123.1451 l -110.183,111.8029 50.231,77.7758 c 56.712,89.1183 132.867,246.2903 132.867,277.0766 0,9.722 -14.583,19.4439 -32.407,19.4439 -24.305,0 -46.99,-30.7862 -93.979,-132.867 -98.84,-212.2634 -85.877,-212.2634 -312.723,12.9626 -105.323,105.3215 -192.82,200.921 -192.82,212.2633 0,9.722 24.305,32.4066 53.471,51.8506 27.545,17.8237 87.497,68.0539 131.247,113.4232 72.914,72.9148 81.016,89.1181 87.497,171.755 8.102,103.7011 -25.925,170.1347 -123.145,236.5683 -82.636,56.7116 -230.087,61.5726 -327.306,11.3423 z m 268.975,-79.3962 c 30.785,-17.8236 63.192,-46.9896 71.294,-63.1929 27.545,-50.2302 17.823,-147.4501 -17.824,-205.782 -40.508,-64.8132 -168.514,-166.894 -210.643,-166.894 -53.47,0 -176.616,202.5413 -176.616,291.6595 0,84.2572 115.044,178.2363 217.125,178.2363 35.647,0 85.877,-14.5829 116.664,-34.0269 z m 45.369,-771.2774 c 126.385,-131.2469 189.578,-205.782 183.097,-221.9853 -30.786,-77.7759 -303.002,-168.5144 -439.109,-145.8298 -199.301,32.4066 -303.002,199.3007 -230.088,367.8151 45.37,106.9418 209.023,233.3277 268.975,207.4023 12.963,-4.861 110.182,-98.8401 217.125,-207.4023 z"
       id="path3911"
       style="fill:#4f4f51;fill-opacity:1;stroke-width:1.62033069" />
    <path
       inkscape:connector-curvature="0"
       d="m 17216.694,8441.4788 c -4.86,-14.583 -9.722,-45.3692 -9.722,-66.4335 0,-35.6474 6.482,-40.5083 45.369,-35.6474 38.889,4.8611 43.75,11.3424 43.75,61.5726 0,45.3693 -6.482,58.332 -34.028,61.5726 -21.064,3.2407 -38.887,-6.4813 -45.369,-21.0643 z"
       id="path3913"
       style="fill:#4f4f51;fill-opacity:1;stroke-width:1.62033069" />
    <path
       inkscape:connector-curvature="0"
       d="m 24921.367,8434.9975 c -21.064,-38.8879 -24.305,-1229.831 -3.241,-1262.2376 8.102,-12.9627 27.546,-19.444 43.749,-16.2033 29.167,4.8609 30.787,32.4066 30.787,652.9932 0,594.6614 -1.62,648.1324 -27.547,652.9933 -14.582,3.2407 -34.027,-9.722 -43.748,-27.5456 z"
       id="path3915"
       style="fill:#4f4f51;fill-opacity:1;stroke-width:1.62033069" />
    <path
       inkscape:connector-curvature="0"
       d="m 28819.882,8454.4415 c -22.684,-21.0643 -11.342,-115.0436 14.584,-124.7655 51.85,-19.444 87.497,42.1286 61.572,110.1825 -9.722,25.9253 -56.711,35.6473 -76.156,14.583 z"
       id="path3917"
       style="fill:#4f4f51;fill-opacity:1;stroke-width:1.62033069" />
    <path
       inkscape:connector-curvature="0"
       d="m 17696.312,8324.815 c -8.101,-16.2033 -21.065,-59.9522 -27.545,-98.8402 -9.722,-64.8132 -17.824,-72.9148 -82.637,-100.4605 -38.889,-17.8236 -71.295,-37.2676 -71.295,-46.9896 0,-17.8236 40.508,-34.0269 89.118,-34.0269 h 37.267 l 6.482,-359.7134 c 4.862,-392.12 12.963,-426.147 103.701,-497.4416 34.028,-25.9253 66.434,-34.0269 145.83,-34.0269 115.043,0 152.311,9.722 152.311,42.1286 0,16.2033 -24.305,22.6847 -98.84,22.6847 -197.68,0 -209.023,25.9252 -209.023,468.2756 0,231.7072 6.482,343.5101 17.824,351.6116 9.723,4.8611 74.535,14.5831 142.589,21.0643 93.979,8.1017 123.145,16.2033 123.145,34.0271 0,19.4439 -29.166,25.9252 -140.969,29.1659 -97.219,3.2406 -142.589,11.3423 -144.209,24.3049 -1.62,11.3423 -1.62,56.7116 1.62,102.0809 3.241,87.4979 -19.444,124.7655 -45.369,76.1555 z"
       id="path3919"
       style="fill:#4f4f51;fill-opacity:1;stroke-width:1.62033069" />
    <path
       inkscape:connector-curvature="0"
       d="m 19321.504,8316.7134 c -4.861,-11.3424 -14.583,-53.471 -21.064,-93.9792 -11.342,-66.4336 -17.824,-74.5352 -84.258,-98.8402 -38.888,-14.583 -74.535,-34.0269 -76.155,-42.1286 -6.482,-17.8236 46.99,-37.2676 103.701,-37.2676 34.027,0 34.027,-4.861 40.508,-359.7134 6.482,-396.9811 19.444,-450.4519 110.183,-505.5433 81.017,-46.9895 291.66,-30.7862 291.66,24.305 0,6.4814 -51.851,14.5831 -113.424,17.8236 -90.738,4.8611 -121.525,12.9628 -150.691,42.1287 -34.027,35.6473 -35.647,48.6099 -40.507,395.3607 -3.242,223.6056 1.62,364.5744 11.341,374.2964 8.102,8.1016 71.294,19.444 137.728,24.3049 68.054,3.2407 123.146,14.5831 123.146,21.0643 0,8.1017 0,19.444 0,27.5457 0,6.4813 -63.194,14.5829 -140.969,19.4439 l -142.59,8.1017 4.862,102.0809 c 3.24,82.6368 0,100.4605 -21.065,100.4605 -14.582,0 -29.165,-9.7221 -32.406,-19.444 z"
       id="path3921"
       style="fill:#4f4f51;fill-opacity:1;stroke-width:1.62033069" />
    <path
       inkscape:connector-curvature="0"
       d="m 26489.847,8240.5578 c -17.824,-93.9792 -21.064,-97.2198 -84.257,-118.2841 -89.118,-29.1659 -95.6,-58.3319 -14.584,-71.2945 50.231,-8.1017 68.055,-19.444 74.536,-48.61 6.481,-21.0643 9.722,-179.8567 9.722,-354.8525 -1.621,-340.2694 8.101,-395.3606 90.738,-460.1739 50.231,-38.8879 155.553,-55.0912 234.948,-34.0269 97.221,27.5456 84.258,64.8133 -24.305,64.8133 -200.921,0 -212.263,25.9252 -212.263,473.1365 0,183.0973 4.862,338.6492 11.342,345.1304 6.482,6.4814 68.054,16.2034 137.729,22.6846 97.219,8.1017 126.386,14.5831 126.386,34.0271 0,19.4439 -29.167,25.9252 -137.729,32.4065 l -137.728,8.1017 v 97.2198 c 0,77.7759 -6.481,97.2199 -27.545,102.0809 -21.065,4.861 -30.787,-16.2033 -46.99,-92.3589 z"
       id="path3923"
       style="fill:#4f4f51;fill-opacity:1;stroke-width:1.62033069" />
    <path
       inkscape:connector-curvature="0"
       d="m 18480.552,8122.2737 c -100.46,-27.5457 -205.781,-142.5892 -249.531,-277.0766 -89.118,-272.2156 -9.722,-539.5701 194.44,-651.3729 77.776,-43.749 100.46,-48.61 231.707,-46.9896 153.932,0 259.254,30.7862 277.077,79.3962 16.204,40.5082 1.62,42.1286 -116.664,14.5829 -121.525,-27.5455 -260.873,-22.6845 -351.612,14.5831 -69.674,29.1659 -142.589,128.006 -168.514,226.8463 -32.407,123.145 -19.444,134.4874 173.376,147.45 89.117,4.861 191.198,4.861 226.846,0 84.257,-12.9626 270.595,6.4814 280.317,30.7863 3.24,11.3423 0,66.4336 -6.482,123.1452 -37.267,273.8358 -231.706,406.703 -490.96,338.6491 z m 280.317,-105.3216 c 59.952,-46.9895 136.108,-194.4396 128.006,-251.1512 -4.86,-35.6473 -12.962,-37.2676 -215.503,-50.2303 -115.044,-6.4813 -251.152,-9.7219 -299.762,-8.1017 -89.117,4.8611 -89.117,4.8611 -82.637,53.471 4.862,48.6099 48.61,142.5891 85.879,186.3381 111.802,129.6264 267.353,157.172 384.017,69.6741 z"
       id="path3925"
       style="fill:#4f4f51;fill-opacity:1;stroke-width:1.62033069" />
    <path
       inkscape:connector-curvature="0"
       d="m 21264.281,8123.894 c -37.269,-9.7219 -92.359,-38.8879 -128.006,-71.2945 -74.536,-68.0539 -89.119,-69.6743 -89.119,-9.722 0,50.2303 -35.647,92.3588 -64.814,74.5351 -9.721,-6.4812 -16.203,-170.1346 -16.203,-479.6178 0,-411.564 3.241,-469.8959 25.926,-479.618 53.471,-19.4439 63.193,22.6847 66.433,307.8629 4.861,328.9271 22.685,429.3876 82.637,490.9602 77.776,77.7759 134.488,103.7012 233.328,103.7012 97.219,0 126.386,17.8236 93.979,56.7115 -22.685,27.5457 -102.081,29.166 -204.161,6.4814 z"
       id="path3927"
       style="fill:#4f4f51;fill-opacity:1;stroke-width:1.62033069" />
    <path
       inkscape:connector-curvature="0"
       d="m 21897.83,8131.9957 c -17.824,-4.861 -59.952,-16.2034 -92.359,-24.305 -61.572,-16.2033 -110.182,-51.8506 -110.182,-82.6369 0,-19.4439 64.813,-11.3423 215.503,27.5457 106.942,29.1659 113.424,29.1659 186.339,-1.6203 93.979,-38.888 152.311,-137.7282 145.829,-241.4294 l -4.861,-64.8132 -97.219,-11.3423 c -236.569,-30.7863 -309.484,-45.3693 -379.158,-81.0166 -93.979,-50.2302 -147.45,-136.1077 -147.45,-244.6699 0,-102.0808 34.026,-171.755 108.562,-221.9853 50.23,-34.0269 77.775,-40.5083 173.376,-38.8879 119.904,0 186.338,24.3049 273.835,97.2198 59.952,50.2303 72.915,48.61 89.119,-12.9626 6.481,-29.166 25.925,-55.0912 40.508,-58.3319 25.925,-4.861 27.546,25.9252 27.546,361.3337 0,291.6596 -4.862,377.537 -24.305,424.5266 -50.231,119.9045 -121.525,165.2738 -272.216,174.9958 -55.092,3.2406 -115.044,3.2406 -132.867,-1.6203 z m 343.51,-502.3026 c 4.861,-12.9626 1.62,-74.5352 -8.101,-132.8671 -16.204,-97.2198 -25.926,-115.0435 -89.119,-176.6161 -194.44,-183.0974 -484.479,-97.2198 -442.35,131.2468 22.684,116.6638 121.524,168.5145 358.093,187.9584 71.295,6.4814 139.349,12.9626 150.691,12.9626 11.342,1.6204 24.305,-8.1016 30.786,-22.6846 z"
       id="path3929"
       style="fill:#4f4f51;fill-opacity:1;stroke-width:1.62033069" />
    <path
       inkscape:connector-curvature="0"
       d="m 25689.403,8127.1347 c -27.545,-6.4814 -82.636,-32.4067 -123.144,-55.0912 -40.509,-24.305 -77.777,-43.749 -82.637,-43.749 -6.482,0 -17.824,22.6847 -27.546,48.6099 -14.583,42.1286 -66.433,69.6742 -66.433,37.2677 0,-8.1017 -4.862,-162.0332 -9.722,-345.1306 -9.723,-393.7403 3.24,-615.7256 35.647,-615.7256 43.749,0 55.091,66.4335 55.091,343.5101 1.621,388.8794 19.444,450.452 160.412,529.8482 85.879,46.9896 226.847,51.8505 306.244,11.3422 102.08,-53.4708 116.664,-115.0434 116.664,-515.2651 v -353.2321 h 38.887 c 50.23,0 53.47,35.6473 50.23,421.286 -3.24,260.8732 -8.102,309.4832 -35.647,372.6761 -17.823,40.5082 -46.99,85.8775 -66.434,102.0808 -72.915,64.8133 -225.226,90.7385 -351.612,61.5726 z"
       id="path3931"
       style="fill:#4f4f51;fill-opacity:1;stroke-width:1.62033069" />
    <path
       inkscape:connector-curvature="0"
       d="m 27295.152,8119.033 c -93.98,-35.6473 -140.969,-76.1555 -197.681,-168.5143 -168.515,-278.697 -72.914,-675.678 184.718,-776.1385 90.738,-34.027 303.002,-38.8879 396.981,-6.4813 55.091,17.8236 106.942,74.5351 87.498,92.3588 -4.861,4.861 -63.193,-3.2406 -131.247,-16.2033 -145.83,-30.7862 -162.033,-30.7862 -270.595,-8.1016 -149.071,32.4066 -267.355,184.7177 -254.392,324.0661 l 4.86,55.0912 137.729,12.9627 c 76.156,6.4813 192.819,8.1017 260.874,3.2406 68.053,-4.861 162.032,-4.861 209.021,1.6204 l 85.879,11.3423 -9.723,103.7011 c -9.722,105.3215 -56.711,231.7073 -105.321,285.1783 -79.397,87.4978 -278.697,131.2468 -398.601,85.8775 z m 204.161,-58.3319 c 76.156,-22.6847 163.653,-119.9045 189.578,-215.504 35.649,-123.1451 32.407,-124.7654 -217.123,-128.0061 -403.463,-6.4814 -356.474,-12.9626 -351.612,48.6099 8.102,116.6638 110.182,246.2903 223.605,286.7986 77.777,27.5455 81.017,27.5455 155.552,8.1016 z"
       id="path3933"
       style="fill:#4f4f51;fill-opacity:1;stroke-width:1.62033069" />
    <path
       inkscape:connector-curvature="0"
       d="m 28443.966,8133.616 c -8.102,-3.2406 -35.647,-9.722 -61.573,-14.583 -24.304,-6.4813 -72.914,-37.2676 -108.561,-68.0538 -64.814,-58.332 -97.221,-61.5726 -97.221,-6.4814 0,68.0539 -51.85,115.0434 -66.433,61.5726 -11.342,-38.888 3.241,-952.7545 14.583,-952.7545 48.61,1.6204 55.09,34.0269 61.572,317.5848 3.241,160.4127 14.583,324.0661 24.305,366.1947 32.407,144.2095 174.996,239.809 354.853,239.809 51.85,0 68.053,37.2677 22.684,55.0913 -25.925,9.7219 -115.043,11.3423 -144.209,1.6203 z"
       id="path3935"
       style="fill:#4f4f51;fill-opacity:1;stroke-width:1.62033069" />
    <path
       inkscape:connector-curvature="0"
       d="m 29440.469,8127.1347 c -162.032,-53.4709 -251.151,-157.1721 -290.038,-338.6491 -42.129,-202.5415 -8.102,-375.9168 100.459,-499.0619 92.359,-105.3215 173.376,-142.5891 311.104,-142.5891 132.867,0 210.643,34.0269 301.382,131.2468 105.322,110.1824 119.904,152.311 119.904,361.3337 0,163.6534 -4.861,194.4397 -38.887,259.2529 -81.017,157.1721 -184.718,225.226 -354.853,234.948 -59.953,4.8609 -126.386,1.6203 -149.071,-6.4813 z m 311.104,-124.7655 c 106.941,-74.5352 145.83,-181.477 137.728,-380.7777 -4.861,-119.9045 -14.583,-173.3754 -43.749,-231.7073 -90.739,-189.5788 -358.094,-226.8463 -505.543,-72.9149 -183.098,192.8193 -128.006,622.207 92.359,722.6675 29.165,12.9627 87.497,19.4439 149.071,16.2033 81.015,-3.2406 115.042,-14.583 170.134,-53.4709 z"
       id="path3937"
       style="fill:#4f4f51;fill-opacity:1;stroke-width:1.62033069" />
    <path
       inkscape:connector-curvature="0"
       d="m 30615.209,8133.616 c -8.102,-3.2406 -35.647,-9.722 -61.572,-14.583 -24.305,-6.4813 -74.536,-37.2676 -110.183,-69.6742 -35.647,-32.4067 -66.433,-55.0913 -69.674,-51.8506 -1.621,3.2407 -11.343,32.4067 -19.444,63.1929 -9.722,32.4067 -25.926,56.7115 -38.888,56.7115 -21.065,0 -24.305,-69.6741 -29.166,-468.2755 -1.62,-257.6326 3.241,-476.3772 9.722,-482.8586 8.101,-8.1017 25.925,-9.7219 38.888,-4.861 21.064,8.1017 25.925,59.9522 32.407,337.0289 6.481,375.9166 17.823,418.0452 139.348,508.7838 61.573,46.9895 82.637,53.4709 165.274,53.4709 100.46,0 129.626,17.8236 97.219,56.7115 -17.823,21.0643 -110.182,30.7864 -153.931,16.2034 z"
       id="path3939"
       style="fill:#4f4f51;fill-opacity:1;stroke-width:1.62033069" />
    <path
       inkscape:connector-curvature="0"
       d="m 31224.453,8122.2737 c -95.599,-21.0643 -196.06,-124.7655 -246.29,-249.531 -29.165,-76.1555 -37.267,-128.0061 -37.267,-249.5309 0,-136.1078 4.86,-163.6534 42.128,-236.5683 51.851,-98.8402 147.45,-189.5786 233.327,-218.7446 79.397,-27.5457 303.002,-27.5457 384.019,0 56.712,19.4439 106.942,74.5351 85.878,95.5995 -6.482,4.861 -45.369,0 -87.498,-9.722 -207.403,-51.8506 -353.232,-35.6472 -448.831,46.9895 -72.916,64.8133 -124.766,174.9958 -118.285,252.7717 l 4.861,61.5725 324.066,8.1017 c 178.237,4.861 333.788,14.583 346.751,22.6847 16.203,11.3423 19.444,37.2676 9.722,113.4231 -32.406,288.4189 -215.504,424.5266 -492.581,362.9541 z m 270.595,-98.8402 c 77.777,-51.8505 166.895,-264.1139 123.146,-291.6596 -22.685,-12.9626 -568.736,-21.0643 -583.319,-8.1016 -21.065,22.6847 30.787,157.1721 85.877,223.6057 111.803,131.2467 247.91,158.7924 374.296,76.1555 z"
       id="path3941"
       style="fill:#4f4f51;fill-opacity:1;stroke-width:1.62033069" />
    <path
       inkscape:connector-curvature="0"
       d="m 32159.384,8127.1347 c -124.766,-40.5083 -191.199,-118.2841 -191.199,-221.9853 0,-118.2841 77.776,-189.5788 306.243,-281.9376 228.467,-90.7385 312.724,-205.782 228.467,-312.7238 -63.194,-81.0166 -260.874,-106.9419 -466.655,-61.5726 -55.092,12.9626 -105.322,17.8236 -110.183,12.9626 -21.065,-19.444 29.166,-74.5352 85.878,-93.9791 34.026,-12.9626 131.246,-22.6847 215.503,-22.6847 134.487,0 165.274,4.861 234.948,42.1286 139.349,71.2946 187.958,189.5788 128.006,315.9646 -34.027,72.9148 -82.637,105.3214 -285.178,194.4396 -92.359,40.5083 -186.338,92.3588 -210.643,116.6638 -63.193,58.3319 -61.573,132.8672 3.241,187.9584 77.776,64.8132 147.449,69.6743 409.943,32.4066 69.675,-9.722 76.155,-8.1016 76.155,22.6846 0,22.6846 -16.202,38.8879 -51.85,51.8506 -69.674,24.305 -315.964,35.6473 -372.676,17.8237 z"
       id="path3943"
       style="fill:#4f4f51;fill-opacity:1;stroke-width:1.62033069" />
    <path
       inkscape:connector-curvature="0"
       d="m 16114.87,8101.2094 c -16.203,-43.749 -11.343,-596.2818 6.48,-690.2609 9.722,-46.9897 34.027,-113.4231 56.712,-147.4501 59.952,-89.1182 123.146,-116.6638 267.355,-116.6638 124.765,1.6203 179.857,19.4439 280.317,93.9791 38.889,29.166 46.989,29.166 59.952,9.722 8.102,-12.9626 16.204,-35.6472 16.204,-50.2303 0,-30.7862 46.99,-55.0912 68.054,-34.0269 6.481,6.4814 11.341,225.226 9.721,482.8586 l -4.86,468.2755 h -40.509 -40.508 l -8.102,-348.3711 c -8.101,-298.1408 -12.963,-354.8523 -37.267,-396.981 -105.322,-173.3754 -416.426,-207.4023 -505.543,-55.0912 -29.167,50.2302 -34.027,92.3588 -40.509,427.7673 -8.101,364.5744 -8.101,372.676 -42.128,377.5371 -21.065,3.2406 -38.889,-6.4814 -45.369,-21.0643 z"
       id="path3945"
       style="fill:#4f4f51;fill-opacity:1;stroke-width:1.62033069" />
    <path
       inkscape:connector-curvature="0"
       d="m 17216.694,8081.7654 c -12.962,-71.2945 -3.24,-907.3852 11.342,-921.9682 6.482,-8.1016 25.926,-4.8609 40.509,3.2407 24.305,16.2032 27.546,63.1929 27.546,486.0992 0,466.6552 0,468.2755 -35.648,473.1366 -25.925,3.2406 -35.647,-4.8611 -43.749,-40.5083 z"
       id="path3947"
       style="fill:#4f4f51;fill-opacity:1;stroke-width:1.62033069" />
    <path
       inkscape:connector-curvature="0"
       d="m 19870.796,8086.6264 c -4.861,-22.6846 -6.481,-191.1991 -3.241,-377.5371 4.862,-324.0661 6.482,-340.2694 45.37,-409.9436 22.684,-38.888 63.192,-87.4979 92.359,-106.9418 108.561,-72.915 315.964,-59.9523 437.488,25.9253 37.269,27.5455 71.295,48.6098 77.777,48.6098 4.86,0 17.824,-21.0643 25.925,-46.9896 16.204,-46.9895 53.471,-74.5352 79.396,-58.3319 6.482,3.2407 11.343,220.365 9.722,481.2383 -1.62,450.452 -3.24,474.7568 -32.407,479.6179 -16.202,3.2406 -35.647,-3.2407 -43.749,-16.2033 -8.101,-11.3424 -14.582,-137.7281 -14.582,-280.3172 0,-359.7135 -14.583,-437.4894 -95.6,-513.6449 -74.536,-71.2946 -173.375,-100.4605 -285.179,-87.4979 -181.476,21.0643 -204.161,79.3962 -204.161,523.3668 1.62,179.8568 -3.24,337.0289 -8.102,351.6118 -16.203,40.5083 -69.674,30.7864 -81.016,-12.9626 z"
       id="path3949"
       style="fill:#4f4f51;fill-opacity:1;stroke-width:1.62033069" />
    <path
       inkscape:connector-curvature="0"
       d="m 28819.882,8114.1721 c -6.48,-4.8611 -11.342,-220.3651 -11.342,-477.9976 0,-419.6657 3.241,-468.2756 25.926,-477.9977 59.952,-22.6845 68.053,29.166 69.673,465.035 1.622,230.0869 -1.62,437.4893 -8.101,460.1739 -9.722,40.5083 -51.851,56.7116 -76.156,30.7864 z"
       id="path3951"
       style="fill:#4f4f51;fill-opacity:1;stroke-width:1.62033069" />
  </g>
</svg>
